<?xml version="1.0" encoding="UTF-8"?>
<!DOCTYPE svg PUBLIC "-//W3C//DTD SVG 1.1//EN" "http://www.w3.org/Graphics/SVG/1.1/DTD/svg11.dtd">
<svg version="1.1" xmlns="http://www.w3.org/2000/svg" xmlns:xlink="http://www.w3.org/1999/xlink" x="0" y="0" width="100" height="100" viewBox="0, 0, 100, 100">
  <g id="Layer_2">
    <path d="M50,-0 C77.614,-0 100,22.386 100,50 C100,77.614 77.614,100 50,100 C22.386,100 0,77.614 0,50 C0,22.386 22.386,-0 50,-0 z M57.824,32.126 L49.976,32.126 L38.356,66.641 C38.158,67.509 38.181,67.097 38.239,67.874 L45.329,67.874 L47.655,60.965 L59.967,60.965 L62.247,67.874 L69.332,67.874 C69.393,67.118 69.412,67.523 69.22,66.661 L57.824,32.126 z M53.873,42.497 L57.657,53.963 L50.013,53.963 L53.873,42.497 z M85.425,32.126 L71.754,32.126 L71.754,67.874 L78.892,67.874 L78.892,57.234 L85.425,57.234 C92.042,57.234 97.27,51.546 97.27,44.68 C97.27,37.815 92.042,32.126 85.425,32.126 z M85.425,39.224 L85.425,39.224 C87.949,39.224 90.132,41.599 90.132,44.68 C90.132,47.762 87.949,50.137 85.425,50.136 L78.892,50.136 L78.892,39.224 L85.425,39.224 z M12.823,32.126 L4.785,32.126 C4.948,32.994 4.805,32.567 5.235,33.398 L16.052,50.011 L5.235,66.624 C4.86,67.35 5.041,66.938 4.73,67.874 L12.837,67.874 L20.259,56.473 L27.682,67.874 L35.781,67.874 C35.483,66.936 35.662,67.347 35.283,66.623 L24.467,50.011 L35.283,33.398 C35.713,32.567 35.571,32.994 35.733,32.126 L27.695,32.126 L20.259,43.548 L12.823,32.126 z" fill="#488288"/>
  </g>
  <g id="Layer_1">
    <path d="M215.523,96.233 L215.523,96.233" fill="#488288"/>
  </g>
</svg>
