<?xml version="1.0" standalone="no"?>
<!DOCTYPE svg PUBLIC "-//W3C//DTD SVG 20010904//EN"
 "http://www.w3.org/TR/2001/REC-SVG-20010904/DTD/svg10.dtd">
<svg version="1.0" xmlns="http://www.w3.org/2000/svg"
 width="400.000000pt" height="400.000000pt" viewBox="0 0 400.000000 400.000000"
 preserveAspectRatio="xMidYMid meet">
<metadata>
Created by potrace 1.14, written by Peter Selinger 2001-2017
</metadata>
<g transform="translate(0.000000,400.000000) scale(0.100000,-0.100000)"
fill="#000000" stroke="none">
<path d="M1849 3996 c-2 -2 -33 -6 -69 -9 -154 -13 -420 -83 -570 -149 -635
-281 -1067 -837 -1185 -1523 -16 -93 -20 -169 -19 -340 1 -177 5 -213 41 -410
18 -104 95 -318 160 -450 159 -321 405 -598 708 -795 144 -94 453 -232 568
-254 12 -2 45 -10 72 -16 144 -33 251 -44 435 -45 189 0 271 7 420 39 615 129
1121 528 1396 1101 79 163 137 349 169 540 26 157 27 468 2 622 -37 223 -100
414 -201 608 -72 138 -90 166 -169 272 -120 162 -257 299 -420 421 -105 78
-134 96 -272 168 -192 99 -405 171 -599 199 -23 4 -54 8 -71 11 -37 6 -391 15
-396 10z"/>
</g>
</svg>
