<?xml version="1.0" encoding="UTF-8"?>
<!DOCTYPE svg PUBLIC "-//W3C//DTD SVG 1.1//EN" "http://www.w3.org/Graphics/SVG/1.1/DTD/svg11.dtd">
<svg version="1.1" xmlns="http://www.w3.org/2000/svg" xmlns:xlink="http://www.w3.org/1999/xlink" x="0" y="0" width="100" height="100" viewBox="0, 0, 100, 100">
  <defs>
    <linearGradient id="Gradient_1" gradientUnits="userSpaceOnUse" x1="50" y1="-0" x2="50" y2="100">
      <stop offset="0" stop-color="#B3CEC5"/>
      <stop offset="0.498" stop-color="#73A1A0"/>
      <stop offset="0.501" stop-color="#498489"/>
      <stop offset="1" stop-color="#0A5765"/>
    </linearGradient>
  </defs>
  <g id="Layer_2">
    <path d="M50,100 C22.386,100 0,77.614 0,50 C0,22.386 22.386,0 50,-0 C77.614,-0 100,22.386 100,50 C100,77.614 77.614,100 50,100 z" fill="url(#Gradient_1)"/>
  </g>
  <g id="Layer_1">
    <g>
      <path d="M85.425,32.126 C92.042,32.126 97.27,37.815 97.27,44.68 C97.27,51.546 92.042,57.234 85.425,57.234 L78.892,57.234 L78.892,67.874 L71.754,67.874 L71.754,50.136 L78.892,50.136 L78.892,50.136 L71.754,50.136 L71.754,32.126 L85.425,32.126 z M85.425,50.136 C87.949,50.137 90.132,47.762 90.132,44.68 C90.132,41.599 87.949,39.224 85.425,39.224 L85.425,39.224 L78.892,39.224 L78.892,50.136 L85.425,50.136 z" fill="#FFFFFF"/>
      <path d="M57.824,32.126 L69.22,66.661 C69.412,67.523 69.393,67.118 69.333,67.874 L62.247,67.874 L59.967,60.965 L47.655,60.965 L45.329,67.874 L38.239,67.874 C38.181,67.097 38.158,67.509 38.356,66.641 L49.976,32.126 L57.824,32.126 z M53.873,42.497 L50.013,53.963 L57.657,53.963 L53.873,42.497 z" fill="#FFFFFF"/>
      <path d="M12.823,32.126 L20.259,43.548 L27.695,32.126 L35.733,32.126 C35.571,32.994 35.713,32.567 35.283,33.398 L24.467,50.011 L35.283,66.624 C35.662,67.347 35.483,66.936 35.781,67.874 L27.682,67.874 L20.259,56.473 L12.837,67.874 L4.73,67.874 C5.041,66.938 4.86,67.35 5.235,66.624 L16.052,50.011 L5.235,33.398 C4.805,32.567 4.948,32.994 4.785,32.126 L12.823,32.126 z" fill="#FFFFFF"/>
    </g>
  </g>
</svg>
